<svg width="0" height="0" class="hidden">
  <symbol xmlns="http://www.w3.org/2000/svg" viewBox="0 0 26 26" id="notification">
    <path d="M12.8908 0.102539C10.0507 0.102539 7.32688 1.08971 5.31861 2.8469C3.31034 4.60408 2.18211 6.98733 2.18211 9.47236V15.0724L0.920266 16.1765C0.670737 16.3949 0.500814 16.6731 0.431979 16.976C0.363144 17.2789 0.398489 17.5928 0.533543 17.8781C0.668598 18.1634 0.897299 18.4073 1.19073 18.5789C1.48417 18.7505 1.82917 18.8421 2.18211 18.8422H23.5995C23.9524 18.8421 24.2974 18.7505 24.5909 18.5789C24.8843 18.4073 25.113 18.1634 25.2481 17.8781C25.3831 17.5928 25.4185 17.2789 25.3496 16.976C25.2808 16.6731 25.1109 16.3949 24.8613 16.1765L23.5995 15.0724V9.47236C23.5995 6.98733 22.4713 4.60408 20.463 2.8469C18.4547 1.08971 15.7309 0.102539 12.8908 0.102539ZM12.8908 25.0887C11.4707 25.0887 10.1088 24.5952 9.10471 23.7166C8.10057 22.838 7.53646 21.6463 7.53646 20.4038H18.2452C18.2452 21.6463 17.681 22.838 16.6769 23.7166C15.6728 24.5952 14.3109 25.0887 12.8908 25.0887Z"></path>
  </symbol>
  <symbol fill="none" xmlns="http://www.w3.org/2000/svg" viewBox="0 0 26 26" id="settings">
    <g clip-path="url(#clip0_1562_542)">
      <path d="M12.8904 15.7192C14.6153 15.7192 16.0136 14.3209 16.0136 12.5959C16.0136 10.871 14.6153 9.47266 12.8904 9.47266C11.1654 9.47266 9.76709 10.871 9.76709 12.5959C9.76709 14.3209 11.1654 15.7192 12.8904 15.7192Z"  stroke-width="2.08218" stroke-linecap="round" stroke-linejoin="round"></path>
      <path d="M20.5946 15.7208C20.456 16.0348 20.4146 16.3831 20.4759 16.7209C20.5371 17.0586 20.6981 17.3702 20.9381 17.6156L21.0006 17.678C21.1942 17.8714 21.3478 18.1011 21.4525 18.3538C21.5573 18.6066 21.6113 18.8776 21.6113 19.1512C21.6113 19.4248 21.5573 19.6958 21.4525 19.9485C21.3478 20.2013 21.1942 20.431 21.0006 20.6243C20.8072 20.8179 20.5776 20.9715 20.3248 21.0763C20.072 21.1811 19.8011 21.235 19.5274 21.235C19.2538 21.235 18.9829 21.1811 18.7301 21.0763C18.4773 20.9715 18.2477 20.8179 18.0543 20.6243L17.9918 20.5619C17.7465 20.3219 17.4348 20.1609 17.0971 20.0996C16.7594 20.0384 16.4111 20.0797 16.097 20.2183C15.7891 20.3503 15.5265 20.5694 15.3415 20.8487C15.1566 21.128 15.0573 21.4553 15.056 21.7904V21.9673C15.056 22.5196 14.8366 23.0492 14.4461 23.4397C14.0556 23.8302 13.526 24.0495 12.9738 24.0495C12.4215 24.0495 11.8919 23.8302 11.5014 23.4397C11.111 23.0492 10.8916 22.5196 10.8916 21.9673V21.8736C10.8835 21.529 10.772 21.1948 10.5715 20.9145C10.3709 20.6341 10.0907 20.4206 9.76721 20.3016C9.4532 20.163 9.10488 20.1217 8.76715 20.1829C8.42943 20.2441 8.11779 20.4051 7.87242 20.6452L7.80996 20.7076C7.61658 20.9012 7.38694 21.0548 7.13417 21.1596C6.88139 21.2644 6.61044 21.3183 6.33681 21.3183C6.06318 21.3183 5.79223 21.2644 5.53946 21.1596C5.28669 21.0548 5.05705 20.9012 4.86367 20.7076C4.67007 20.5142 4.51649 20.2846 4.41171 20.0318C4.30693 19.7791 4.25299 19.5081 4.25299 19.2345C4.25299 18.9608 4.30693 18.6899 4.41171 18.4371C4.51649 18.1844 4.67007 17.9547 4.86367 17.7613L4.92613 17.6989C5.16614 17.4535 5.32715 17.1419 5.38838 16.8041C5.44962 16.4664 5.40828 16.1181 5.26969 15.8041C5.13772 15.4962 4.91859 15.2335 4.63928 15.0486C4.35996 14.8636 4.03266 14.7643 3.69765 14.763H3.52066C2.96843 14.763 2.43882 14.5436 2.04833 14.1531C1.65785 13.7626 1.43848 13.233 1.43848 12.6808C1.43848 12.1286 1.65785 11.599 2.04833 11.2085C2.43882 10.818 2.96843 10.5986 3.52066 10.5986H3.61436C3.95895 10.5906 4.29316 10.479 4.57352 10.2785C4.85388 10.078 5.06743 9.79775 5.18641 9.47424C5.32499 9.16023 5.36633 8.81191 5.3051 8.47418C5.24386 8.13646 5.08286 7.82482 4.84285 7.57945L4.78038 7.51699C4.58679 7.32361 4.43321 7.09397 4.32842 6.8412C4.22364 6.58842 4.1697 6.31748 4.1697 6.04384C4.1697 5.77021 4.22364 5.49927 4.32842 5.24649C4.43321 4.99372 4.58679 4.76408 4.78038 4.5707C4.97376 4.37711 5.2034 4.22353 5.45617 4.11874C5.70895 4.01396 5.97989 3.96002 6.25353 3.96002C6.52716 3.96002 6.79811 4.01396 7.05088 4.11874C7.30365 4.22353 7.53329 4.37711 7.72667 4.5707L7.78914 4.63317C8.0345 4.87318 8.34614 5.03418 8.68386 5.09541C9.02159 5.15665 9.36991 5.11531 9.68392 4.97673H9.76721C10.0751 4.84475 10.3377 4.62562 10.5227 4.34631C10.7077 4.06699 10.807 3.73969 10.8083 3.40468V3.22769C10.8083 2.67546 11.0277 2.14585 11.4182 1.75537C11.8086 1.36488 12.3383 1.14551 12.8905 1.14551C13.4427 1.14551 13.9723 1.36488 14.3628 1.75537C14.7533 2.14585 14.9727 2.67546 14.9727 3.22769V3.32139C14.974 3.6564 15.0733 3.98371 15.2582 4.26302C15.4432 4.54234 15.7058 4.76147 16.0138 4.89344C16.3278 5.03202 16.6761 5.07336 17.0138 5.01213C17.3515 4.95089 17.6632 4.78989 17.9085 4.54988L17.971 4.48741C18.1644 4.29382 18.394 4.14024 18.6468 4.03545C18.8996 3.93067 19.1705 3.87674 19.4442 3.87674C19.7178 3.87674 19.9887 3.93067 20.2415 4.03545C20.4943 4.14024 20.7239 4.29382 20.9173 4.48741C21.1109 4.68079 21.2645 4.91043 21.3693 5.16321C21.474 5.41598 21.528 5.68693 21.528 5.96056C21.528 6.23419 21.474 6.50514 21.3693 6.75791C21.2645 7.01068 21.1109 7.24032 20.9173 7.4337L20.8548 7.49617C20.6148 7.74153 20.4538 8.05317 20.3926 8.39089C20.3314 8.72862 20.3727 9.07694 20.5113 9.39095V9.47424C20.6432 9.78217 20.8624 10.0448 21.1417 10.2298C21.421 10.4147 21.7483 10.514 22.0833 10.5153H22.2603C22.8125 10.5153 23.3422 10.7347 23.7326 11.1252C24.1231 11.5157 24.3425 12.0453 24.3425 12.5975C24.3425 13.1497 24.1231 13.6794 23.7326 14.0698C23.3422 14.4603 22.8125 14.6797 22.2603 14.6797H22.1666C21.8316 14.681 21.5043 14.7803 21.225 14.9653C20.9457 15.1503 20.7265 15.4129 20.5946 15.7208Z"  stroke-width="2.08218" stroke-linecap="round" stroke-linejoin="round"></path>
    </g>
    <defs>
      <clipPath id="clip0_1562_542">
        <rect width="24.9862" height="24.9862" fill="white" transform="translate(0.398438 0.102539)"></rect>
      </clipPath>
    </defs>
  </symbol>
  <symbol fill="none" xmlns="http://www.w3.org/2000/svg" viewBox="0 0 24 25" id="chevron-down">
    <path d="M6 9.5L12 15.5L18 9.5" stroke-width="2" stroke-linecap="round" stroke-linejoin="round"></path>
  </symbol>
  <symbol fill="none" xmlns="http://www.w3.org/2000/svg" viewBox="0 0 25 25" id="eye-off">
    <g clip-path="url(#clip0_1562_579)">
      <path d="M18.874 18.857C17.168 20.1575 15.0905 20.8779 12.9457 20.913C5.95938 20.913 1.96722 12.9287 1.96722 12.9287C3.20868 10.6151 4.93054 8.5938 7.0173 7.00032M10.8498 5.18389C11.5368 5.02309 12.2401 4.9427 12.9457 4.94436C19.9319 4.94436 23.9241 12.9287 23.9241 12.9287C23.3183 14.0621 22.5958 15.1291 21.7683 16.1124M15.0615 15.0445C14.7874 15.3387 14.4568 15.5746 14.0896 15.7383C13.7223 15.9019 13.3258 15.9899 12.9238 15.997C12.5218 16.0041 12.1224 15.9302 11.7496 15.7796C11.3768 15.629 11.0381 15.4048 10.7538 15.1205C10.4695 14.8362 10.2454 14.4975 10.0948 14.1247C9.94418 13.7519 9.87022 13.3526 9.87732 12.9505C9.88441 12.5485 9.97241 12.152 10.1361 11.7848C10.2997 11.4175 10.5356 11.0869 10.8298 10.8128" stroke-width="1.99608" stroke-linecap="round" stroke-linejoin="round"></path>
      <path d="M1.96722 1.9502L23.9241 23.9071" stroke-width="1.99608" stroke-linecap="round" stroke-linejoin="round"></path>
    </g>
    <defs>
      <clipPath id="clip0_1562_579">
        <rect width="23.9529" height="23.9529" fill="white" transform="translate(0.968536 0.951172)"></rect>
      </clipPath>
    </defs>
  </symbol>
  <symbol xmlns="http://www.w3.org/2000/svg" viewBox="0 0 28 25" id="calendar">
    <path d="M21.6313 4.91211H6.18223C4.96333 4.91211 3.97522 5.80754 3.97522 6.91211V20.9121C3.97522 22.0167 4.96333 22.9121 6.18223 22.9121H21.6313C22.8502 22.9121 23.8383 22.0167 23.8383 20.9121V6.91211C23.8383 5.80754 22.8502 4.91211 21.6313 4.91211Z"  stroke-width="2" stroke-linecap="round" stroke-linejoin="round"></path>
    <path d="M18.3208 2.91211V6.91211"  stroke-width="2" stroke-linecap="round" stroke-linejoin="round"></path>
    <path d="M9.49274 2.91211V6.91211"  stroke-width="2" stroke-linecap="round" stroke-linejoin="round"></path>
    <path d="M3.97522 10.9121H23.8383"  stroke-width="2" stroke-linecap="round" stroke-linejoin="round"></path>
  </symbol>
  <symbol fill="none" xmlns="http://www.w3.org/2000/svg" viewBox="0 0 18 17" id="wrong">
    <g clip-path="url(#clip0_1558_610)">
      <path d="M9.02753 15.2694C12.8607 15.2694 15.9681 12.162 15.9681 8.3288C15.9681 4.4956 12.8607 1.38818 9.02753 1.38818C5.19433 1.38818 2.08691 4.4956 2.08691 8.3288C2.08691 12.162 5.19433 15.2694 9.02753 15.2694Z"  stroke-width="2.08218" stroke-linecap="round" stroke-linejoin="round"></path>
      <path d="M11.1094 6.24658L6.94507 10.4109"  stroke-width="2.08218" stroke-linecap="round" stroke-linejoin="round"></path>
      <path d="M6.94507 6.24658L11.1094 10.4109"  stroke-width="2.08218" stroke-linecap="round" stroke-linejoin="round"></path>
    </g>
    <defs>
      <clipPath id="clip0_1558_610">
        <rect width="16.6575" height="16.6575" fill="white" transform="translate(0.69873)"></rect>
      </clipPath>
    </defs>
  </symbol>
  <symbol fill="none" xmlns="http://www.w3.org/2000/svg" viewBox="0 0 18 17" id="check-circle">
    <g clip-path="url(#clip0_1558_605)">
      <path d="M15.7626 7.69033V8.32886C15.7617 9.82555 15.2771 11.2819 14.3809 12.4806C13.4848 13.6794 12.2251 14.5563 10.7899 14.9807C9.3546 15.405 7.82061 15.3541 6.41667 14.8354C5.01273 14.3167 3.81407 13.3581 2.99945 12.1025C2.18484 10.8469 1.79792 9.36167 1.89639 7.86822C1.99487 6.37478 2.57347 4.95317 3.5459 3.81543C4.51833 2.67769 5.83249 1.88477 7.29238 1.55493C8.75227 1.22508 10.2797 1.37599 11.6468 1.98514" stroke-width="2.08218" stroke-linecap="round" stroke-linejoin="round"></path>
      <path d="M15.7625 2.77637L8.82193 9.72392L6.73975 7.64174"  stroke-width="2.08218" stroke-linecap="round" stroke-linejoin="round"></path>
    </g>
    <defs>
      <clipPath id="clip0_1558_605">
        <rect width="16.6575" height="16.6575" fill="white" transform="translate(0.493164)"></rect>
      </clipPath>
    </defs>
  </symbol>
  <symbol fill="none" xmlns="http://www.w3.org/2000/svg" viewBox="0 0 24 24" id="globe">
    <path d="M12 22.0002C17.5228 22.0002 22 17.5231 22 12.0002C22 6.4774 17.5228 2.00024 12 2.00024C6.47715 2.00024 2 6.4774 2 12.0002C2 17.5231 6.47715 22.0002 12 22.0002Z"  stroke-width="0.754902" stroke-linecap="round" stroke-linejoin="round"></path>
    <path d="M2 12.0005H22" stroke-width="0.754902" stroke-linecap="round" stroke-linejoin="round"></path>
    <path d="M11.9995 2.00024C14.5008 4.7386 15.9223 8.29228 15.9995 12.0002C15.9223 15.7082 14.5008 19.2619 11.9995 22.0002C9.49823 19.2619 8.07676 15.7082 7.99951 12.0002C8.07676 8.29228 9.49823 4.7386 11.9995 2.00024Z"  stroke-width="0.754902" stroke-linecap="round" stroke-linejoin="round"></path>
  </symbol>
  <symbol xmlns="http://www.w3.org/2000/svg" viewBox="0 0 27 23" id="phone">
    <path d="M25.6736 16.59V19.5641C25.6749 19.8402 25.6061 20.1135 25.4715 20.3664C25.3368 20.6194 25.1394 20.8465 24.8917 21.0332C24.6441 21.2198 24.3517 21.3619 24.0333 21.4504C23.715 21.5388 23.3776 21.5717 23.0429 21.5468C19.3297 21.2153 15.7628 20.1729 12.629 18.5033C9.71337 16.9813 7.24143 14.9505 5.38872 12.5552C3.34935 9.96889 2.08021 7.02433 1.68411 3.96003C1.65396 3.68589 1.69361 3.40959 1.80056 3.14873C1.9075 2.88786 2.0794 2.64815 2.30529 2.44486C2.53118 2.24156 2.80612 2.07913 3.11261 1.96791C3.4191 1.85669 3.75042 1.79912 4.08547 1.79886H7.70561C8.29124 1.79413 8.85898 1.9645 9.30301 2.27822C9.74705 2.59194 10.0371 3.0276 10.119 3.50401C10.2718 4.45578 10.5552 5.3903 10.9637 6.28974C11.1261 6.64457 11.1612 7.0302 11.065 7.40094C10.9687 7.77167 10.7452 8.11197 10.4207 8.38152L8.88819 9.64055C10.606 12.1225 13.1074 14.1775 16.1285 15.5887L17.661 14.3297C17.9891 14.0632 18.4033 13.8795 18.8546 13.8004C19.3058 13.7213 19.7752 13.7502 20.2072 13.8836C21.302 14.2192 22.4395 14.452 23.598 14.5775C24.1842 14.6455 24.7195 14.888 25.1022 15.2591C25.4849 15.6301 25.6883 16.1038 25.6736 16.59Z"  stroke-width="2" stroke-linecap="round" stroke-linejoin="round"></path>
  </symbol>
  <symbol fill="none" xmlns="http://www.w3.org/2000/svg" viewBox="0 0 24 20" id="mail">
    <path d="M4 3.53683H20C21.1 3.53683 22 4.27769 22 5.18318V15.0612C22 15.9667 21.1 16.7076 20 16.7076H4C2.9 16.7076 2 15.9667 2 15.0612V5.18318C2 4.27769 2.9 3.53683 4 3.53683Z"  stroke-width="2" stroke-linecap="round" stroke-linejoin="round"></path>
    <path d="M22 5.18317L12 10.9454L2 5.18317"  stroke-width="2" stroke-linecap="round" stroke-linejoin="round"></path>
  </symbol>
  <symbol fill="none" xmlns="http://www.w3.org/2000/svg" viewBox="0 0 5 18" id="threeDots">
    <path d="M2.02988 2.2929V2.30268M2.02988 9.13857V9.14835M2.02988 15.9843V15.994M2.02988 3.27085C1.77266 3.27085 1.52599 3.16781 1.34411 2.98441C1.16224 2.80101 1.06006 2.55226 1.06006 2.2929C1.06006 2.03353 1.16224 1.78478 1.34411 1.60138C1.52599 1.41798 1.77266 1.31494 2.02988 1.31494C2.28709 1.31494 2.53376 1.41798 2.71564 1.60138C2.89751 1.78478 2.99969 2.03353 2.99969 2.2929C2.99969 2.55226 2.89751 2.80101 2.71564 2.98441C2.53376 3.16781 2.28709 3.27085 2.02988 3.27085ZM2.02988 10.1165C1.77266 10.1165 1.52599 10.0135 1.34411 9.83009C1.16224 9.64669 1.06006 9.39794 1.06006 9.13857C1.06006 8.8792 1.16224 8.63046 1.34411 8.44706C1.52599 8.26365 1.77266 8.16062 2.02988 8.16062C2.28709 8.16062 2.53376 8.26365 2.71564 8.44706C2.89751 8.63046 2.99969 8.8792 2.99969 9.13857C2.99969 9.39794 2.89751 9.64669 2.71564 9.83009C2.53376 10.0135 2.28709 10.1165 2.02988 10.1165ZM2.02988 16.9622C1.77266 16.9622 1.52599 16.8592 1.34411 16.6758C1.16224 16.4924 1.06006 16.2436 1.06006 15.9843C1.06006 15.7249 1.16224 15.4761 1.34411 15.2927C1.52599 15.1093 1.77266 15.0063 2.02988 15.0063C2.28709 15.0063 2.53376 15.1093 2.71564 15.2927C2.89751 15.4761 2.99969 15.7249 2.99969 15.9843C2.99969 16.2436 2.89751 16.4924 2.71564 16.6758C2.53376 16.8592 2.28709 16.9622 2.02988 16.9622Z"  stroke-width="2.08218" stroke-linecap="round" stroke-linejoin="round"></path>
  </symbol>
  <symbol fill="none" xmlns="http://www.w3.org/2000/svg" viewBox="0 0 24 24" id="trash">
    <path d="M3 6H5H21"  stroke-width="2" stroke-linecap="round" stroke-linejoin="round"></path>
    <path d="M19 6V20C19 20.5304 18.7893 21.0391 18.4142 21.4142C18.0391 21.7893 17.5304 22 17 22H7C6.46957 22 5.96086 21.7893 5.58579 21.4142C5.21071 21.0391 5 20.5304 5 20V6M8 6V4C8 3.46957 8.21071 2.96086 8.58579 2.58579C8.96086 2.21071 9.46957 2 10 2H14C14.5304 2 15.0391 2.21071 15.4142 2.58579C15.7893 2.96086 16 3.46957 16 4V6"  stroke-width="2" stroke-linecap="round" stroke-linejoin="round"></path>
    <path d="M10 11V17"  stroke-width="2" stroke-linecap="round" stroke-linejoin="round"></path>
    <path d="M14 11V17"  stroke-width="2" stroke-linecap="round" stroke-linejoin="round"></path>
  </symbol>
  <symbol fill="none" xmlns="http://www.w3.org/2000/svg" viewBox="0 0 24 24" id="download-cloud">
    <g clip-path="url(#clip0_1705_3345)">
      <path d="M8 17L12 21L16 17"  stroke-width="2" stroke-linecap="round" stroke-linejoin="round"></path>
      <path d="M12 12V21"  stroke-width="2" stroke-linecap="round" stroke-linejoin="round"></path>
      <path d="M20.8802 18.09C21.7496 17.4786 22.4015 16.6061 22.7415 15.5991C23.0814 14.5921 23.0916 13.503 22.7706 12.4898C22.4496 11.4766 21.814 10.5921 20.9562 9.96456C20.0985 9.33703 19.063 8.99916 18.0002 8.99999H16.7402C16.4394 7.82787 15.8767 6.73924 15.0943 5.81607C14.3119 4.89291 13.3303 4.15925 12.2234 3.67035C11.1164 3.18144 9.91302 2.95002 8.7037 2.99351C7.49439 3.037 6.31069 3.35426 5.24173 3.92142C4.17277 4.48858 3.2464 5.29084 2.53236 6.26782C1.81833 7.2448 1.33523 8.37104 1.11944 9.56174C0.903647 10.7524 0.960787 11.9766 1.28656 13.142C1.61233 14.3074 2.19824 15.3838 3.00018 16.29"  stroke-width="2" stroke-linecap="round" stroke-linejoin="round"></path>
    </g>
    <defs>
      <clipPath id="clip0_1705_3345">
        <rect width="24" height="24" fill="white"></rect>
      </clipPath>
    </defs>
  </symbol>
  <symbol xmlns="http://www.w3.org/2000/svg" viewBox="0 0 47 48" id="djokwa">
    <path d="M7.8335 41.5632V27.8549"  stroke-width="3.91667" stroke-linecap="round" stroke-linejoin="round"></path>
    <path d="M7.8335 20.0215V6.3132"  stroke-width="3.91667" stroke-linecap="round" stroke-linejoin="round"></path>
    <path d="M23.5 41.5632V23.9382"  stroke-width="3.91667" stroke-linecap="round" stroke-linejoin="round"></path>
    <path d="M23.5 16.1049V6.3132"  stroke-width="3.91667" stroke-linecap="round" stroke-linejoin="round"></path>
    <path d="M39.1665 41.5632V31.7715"  stroke-width="3.91667" stroke-linecap="round" stroke-linejoin="round"></path>
    <path d="M39.1665 23.9382V6.3132"  stroke-width="3.91667" stroke-linecap="round" stroke-linejoin="round"></path>
    <path d="M1.9585 27.8549H13.7085"  stroke-width="3.91667" stroke-linecap="round" stroke-linejoin="round"></path>
    <path d="M17.625 16.1049H29.375"  stroke-width="3.91667" stroke-linecap="round" stroke-linejoin="round"></path>
    <path d="M33.2915 31.7715H45.0415"  stroke-width="3.91667" stroke-linecap="round" stroke-linejoin="round"></path>
  </symbol>
  <symbol  xmlns="http://www.w3.org/2000/svg" viewBox="0 0 32 29" id="audience">
    <path d="M20.9381 20.8945V19.814C20.9381 18.5534 19.9305 17.8387 19.0198 17.4563C18.8859 17.4 18.7514 17.3475 18.6162 17.299C18.9421 16.8459 19.1157 16.3111 19.1157 15.7224C19.1157 14.9212 18.7953 14.2189 18.2084 13.6837C17.6247 13.1503 16.9051 12.8967 16.1259 12.8967C15.3495 12.8967 14.6308 13.1461 14.0451 13.6728C13.4515 14.2055 13.1258 14.9092 13.1258 15.7145C13.1258 16.3087 13.302 16.8485 13.6321 17.3063C13.515 17.3502 13.3987 17.3973 13.2833 17.4477L20.9381 20.8945ZM20.9381 20.8945C21.0204 20.8304 21.0876 20.7681 21.1417 20.7085L21.1444 20.7055C21.4698 20.3494 21.5154 20.124 21.5154 20.0123V14.7279C21.5154 14.4163 21.3452 13.8951 19.9622 13.3827C18.5129 12.8456 17.2365 12.597 16.1208 12.597C15.0038 12.597 13.7275 12.8457 12.2795 13.3826C10.8991 13.8945 10.7267 14.4155 10.7261 14.7286C10.7261 14.7288 10.7261 14.729 10.7261 14.7292L10.7261 20.0123C10.7261 20.2582 10.8943 20.7954 12.3262 21.4217L20.9381 20.8945ZM11.1586 20.3747L11.3257 19.5317C11.5362 18.4705 12.399 17.8322 13.2827 17.4479L11.1586 20.3747ZM11.1586 20.3747L11.9128 20.7868M11.1586 20.3747L11.9128 20.7868M11.9128 20.7868C12.6192 21.1729 13.3981 21.4488 14.2397 21.6235C14.7072 21.7213 15.1873 21.7836 15.6792 21.8116V22.1563M11.9128 20.7868L15.6792 22.1563M15.6792 22.1563C14.4803 22.1234 13.366 21.8758 12.3262 21.4218L15.6792 22.1563ZM14.8368 8.47029L14.8359 8.46949C14.5078 8.17243 14.3743 7.85951 14.3743 7.46408C14.3743 7.06791 14.5084 6.75279 14.8364 6.45507C15.1691 6.15408 15.5726 5.99195 16.1208 5.99195C16.6688 5.99195 17.0723 6.15402 17.4049 6.45491C17.7337 6.75429 17.8672 7.06889 17.8672 7.46408C17.8672 7.85951 17.7337 8.17243 17.4056 8.46949L17.4047 8.47029C17.0719 8.77227 16.6685 8.93464 16.1208 8.93464C15.573 8.93464 15.1696 8.77227 14.8368 8.47029Z" fill="white"  stroke-width="2.34167"></path>
  </symbol>
  <symbol xmlns="http://www.w3.org/2000/svg" viewBox="0 0 35 30" id="dashboard">
    <path d="M1.50488 5.02346C1.50488 4.27157 1.84054 3.55049 2.43801 3.01882C3.03548 2.48716 3.84583 2.18848 4.69078 2.18848H14.2485V27.7033H4.69078C3.84583 27.7033 3.03548 27.4046 2.43801 26.873C1.84054 26.3413 1.50488 25.6202 1.50488 24.8683V5.02346ZM20.6203 2.18848H30.1779C31.0229 2.18848 31.8332 2.48716 32.4307 3.01882C33.0282 3.55049 33.3638 4.27157 33.3638 5.02346V12.1109H20.6203V2.18848ZM20.6203 17.7809H33.3638V24.8683C33.3638 25.6202 33.0282 26.3413 32.4307 26.873C31.8332 27.4046 31.0229 27.7033 30.1779 27.7033H20.6203V17.7809Z" stroke-width="3" stroke-linecap="round" stroke-linejoin="round"></path>
  </symbol>
  <symbol xmlns="http://www.w3.org/2000/svg" viewBox="0 0 215 215" id="check">
    <g clip-path="url(#clip0_1370_985)">
      <path d="M107.5 35.833C67.9939 35.833 35.8335 67.9934 35.8335 107.5C35.8335 147.006 67.9939 179.166 107.5 179.166C147.006 179.166 179.167 147.006 179.167 107.5C179.167 67.9934 147.006 35.833 107.5 35.833ZM89.5835 152.291L53.7502 116.458L66.3814 103.827L89.5835 126.939L148.619 67.9038L161.25 80.6247L89.5835 152.291Z" fill="#DDF0CC"></path>
      <path d="M107.5 17.917C58.0498 17.917 17.9165 58.0503 17.9165 107.5C17.9165 156.95 58.0498 197.084 107.5 197.084C156.95 197.084 197.083 156.95 197.083 107.5C197.083 58.0503 156.95 17.917 107.5 17.917ZM107.5 179.167C67.9936 179.167 35.8332 147.007 35.8332 107.5C35.8332 67.9941 67.9936 35.8337 107.5 35.8337C147.006 35.8337 179.167 67.9941 179.167 107.5C179.167 147.007 147.006 179.167 107.5 179.167ZM148.619 67.9045L89.5832 126.94L66.3811 103.827L53.7498 116.459L89.5832 152.292L161.25 80.6253L148.619 67.9045Z" fill="#4E7A25"></path>
    </g>
    <defs>
      <clipPath id="clip0_1370_985">
        <rect width="215" height="215" fill="white"></rect>
      </clipPath>
    </defs>
  </symbol>
  <symbol fill="none" xmlns="http://www.w3.org/2000/svg" viewBox="0 0 27 22" id="event">
    <path fill-rule="evenodd" clip-rule="evenodd" d="M6.61104 0.324219C6.17293 0.324219 5.75276 0.463819 5.44297 0.71231C5.13317 0.9608 4.95914 1.29783 4.95914 1.64924V2.97427H3.30723C2.431 2.97427 1.59067 3.25347 0.971082 3.75045C0.351497 4.24743 0.00341797 4.92148 0.00341797 5.62432V18.8746C0.00341797 19.5774 0.351497 20.2515 0.971082 20.7484C1.59067 21.2454 2.431 21.5246 3.30723 21.5246H23.1301C24.0063 21.5246 24.8467 21.2454 25.4662 20.7484C26.0858 20.2515 26.4339 19.5774 26.4339 18.8746V5.62432C26.4339 4.92148 26.0858 4.24743 25.4662 3.75045C24.8467 3.25347 24.0063 2.97427 23.1301 2.97427H21.4782V1.64924C21.4782 1.29783 21.3042 0.9608 20.9944 0.71231C20.6846 0.463819 20.2644 0.324219 19.8263 0.324219C19.3882 0.324219 18.968 0.463819 18.6582 0.71231C18.3484 0.9608 18.1744 1.29783 18.1744 1.64924V2.97427H8.26295V1.64924C8.26295 1.29783 8.08891 0.9608 7.77911 0.71231C7.46932 0.463819 7.04915 0.324219 6.61104 0.324219ZM6.61104 6.94935C6.17293 6.94935 5.75276 7.08895 5.44297 7.33744C5.13317 7.58593 4.95914 7.92295 4.95914 8.27437C4.95914 8.62579 5.13317 8.96282 5.44297 9.21131C5.75276 9.4598 6.17293 9.5994 6.61104 9.5994H19.8263C20.2644 9.5994 20.6846 9.4598 20.9944 9.21131C21.3042 8.96282 21.4782 8.62579 21.4782 8.27437C21.4782 7.92295 21.3042 7.58593 20.9944 7.33744C20.6846 7.08895 20.2644 6.94935 19.8263 6.94935H6.61104Z" fill="white"></path>
  </symbol>
  <symbol xmlns="http://www.w3.org/2000/svg" viewBox="0 0 24 25" id="profile">
    <path fill-rule="evenodd" clip-rule="evenodd" d="M11.976 10.0082C13.3368 10.0082 14.6419 9.48166 15.6042 8.54449C16.5665 7.60733 17.1071 6.33626 17.1071 5.01091C17.1071 3.68556 16.5665 2.41449 15.6042 1.47733C14.6419 0.540165 13.3368 0.0136719 11.976 0.0136719C10.6151 0.0136719 9.31001 0.540165 8.34774 1.47733C7.38547 2.41449 6.84488 3.68556 6.84488 5.01091C6.84488 6.33626 7.38547 7.60733 8.34774 8.54449C9.31001 9.48166 10.6151 10.0082 11.976 10.0082ZM0.00341797 24.9999C0.00341795 23.4686 0.313097 21.9524 0.914775 20.5377C1.51645 19.123 2.39834 17.8376 3.5101 16.7548C4.62185 15.6721 5.9417 14.8132 7.39427 14.2272C8.84685 13.6412 10.4037 13.3396 11.976 13.3396C13.5482 13.3396 15.1051 13.6412 16.5577 14.2272C18.0102 14.8132 19.3301 15.6721 20.4418 16.7548C21.5536 17.8376 22.4355 19.123 23.0372 20.5377C23.6388 21.9524 23.9485 23.4686 23.9485 24.9999H0.00341797Z"></path>
  </symbol>
  <symbol  xmlns="http://www.w3.org/2000/svg" viewBox="0 0 19 7" id="transaction">
    <path d="M1.66724 1.89453H17.4918M1.66724 5.68032H8.33022"  stroke-width="2.08218" stroke-linecap="round"></path>
  </symbol>
  <symbol xmlns="http://www.w3.org/2000/svg" viewBox="0 0 25 22" id="level">
    <path fill-rule="evenodd" clip-rule="evenodd" d="M15.6126 4.84039C15.1981 4.84039 14.8006 4.62075 14.5075 4.22978C14.2144 3.83881 14.0498 3.30855 14.0498 2.75564C14.0498 2.20273 14.2144 1.67247 14.5075 1.28151C14.8006 0.890541 15.1981 0.670898 15.6126 0.670898H23.4268C23.8413 0.670898 24.2388 0.890541 24.5319 1.28151C24.825 1.67247 24.9896 2.20273 24.9896 2.75564V13.1794C24.9896 13.7323 24.825 14.2625 24.5319 14.6535C24.2388 15.0445 23.8413 15.2641 23.4268 15.2641C23.0123 15.2641 22.6148 15.0445 22.3217 14.6535C22.0286 14.2625 21.8639 13.7323 21.8639 13.1794V7.78822L15.1547 16.738C14.8616 17.1289 14.4642 17.3484 14.0498 17.3484C13.6353 17.3484 13.2379 17.1289 12.9448 16.738L9.36124 11.9577L2.65198 20.9075C2.35722 21.2873 1.96245 21.4974 1.55268 21.4927C1.1429 21.4879 0.750925 21.2687 0.461163 20.8821C0.1714 20.4956 0.00703785 19.9727 0.00347705 19.4261C-8.37515e-05 18.8795 0.157441 18.3529 0.442125 17.9597L8.25631 7.53596C8.54939 7.14513 8.94683 6.92558 9.36124 6.92558C9.77565 6.92558 10.1731 7.14513 10.4662 7.53596L14.0498 12.3163L19.6541 4.84039H15.6126Z" ></path>
  </symbol>
  <symbol xmlns="http://www.w3.org/2000/svg" viewBox="0 0 18 19" id="message">
    <path d="M0.00341797 3.60836C0.00341797 2.7345 0.337247 1.89644 0.931467 1.27853C1.52569 0.660615 2.33162 0.313477 3.17198 0.313477H14.2619C15.1023 0.313477 15.9082 0.660615 16.5024 1.27853C17.0967 1.89644 17.4305 2.7345 17.4305 3.60836V10.1981C17.4305 11.072 17.0967 11.9101 16.5024 12.528C15.9082 13.1459 15.1023 13.493 14.2619 13.493H11.0934L6.34054 18.4353V13.493H3.17198C2.33162 13.493 1.52569 13.1459 0.931467 12.528C0.337247 11.9101 0.00341797 11.072 0.00341797 10.1981V3.60836Z"></path>
  </symbol>
  <symbol xmlns="http://www.w3.org/2000/svg" viewBox="0 0 28 28" id="moon">
    <path d="M26.8971 14.6958C26.6783 17.0636 25.7896 19.3202 24.3351 21.2015C22.8806 23.0828 20.9203 24.5109 18.6838 25.3187C16.4472 26.1266 14.0269 26.2808 11.7059 25.7633C9.38489 25.2457 7.2593 24.0779 5.57781 22.3964C3.89633 20.7149 2.7285 18.5893 2.21098 16.2684C1.69345 13.9474 1.84764 11.527 2.6555 9.29046C3.46335 7.05391 4.89147 5.09369 6.77273 3.63916C8.65399 2.18464 10.9106 1.29597 13.2785 1.07715C11.8922 2.95269 11.225 5.26351 11.3985 7.58934C11.5719 9.91516 12.5744 12.1015 14.2236 13.7507C15.8728 15.3998 18.0591 16.4023 20.3849 16.5757C22.7107 16.7492 25.0215 16.0821 26.8971 14.6958Z"  stroke-width="2.08218" stroke-linecap="round" stroke-linejoin="round"></path>
  </symbol>
  <symbol xmlns="http://www.w3.org/2000/svg" viewBox="0 0 30 30" id="search">
    <path fill-rule="evenodd" clip-rule="evenodd" d="M10.9731 4.07265C9.03295 4.07265 7.17224 4.841 5.80034 6.20869C4.42843 7.57637 3.6577 9.43135 3.6577 11.3655C3.6577 13.2997 4.42843 15.1547 5.80034 16.5224C7.17224 17.8901 9.03295 18.6584 10.9731 18.6584C12.9133 18.6584 14.774 17.8901 16.1459 16.5224C17.5178 15.1547 18.2885 13.2997 18.2885 11.3655C18.2885 9.43135 17.5178 7.57637 16.1459 6.20869C14.774 4.841 12.9133 4.07265 10.9731 4.07265ZM2.07504e-07 11.3655C-0.000220175 9.64388 0.40718 7.94647 1.18907 6.41137C1.97095 4.87627 3.10525 3.54683 4.4997 2.53116C5.89415 1.51549 7.50938 0.842284 9.21403 0.566286C10.9187 0.290288 12.6646 0.419294 14.3098 0.942813C15.955 1.46633 17.453 2.36958 18.682 3.57909C19.911 4.78861 20.8363 6.27024 21.3827 7.90348C21.929 9.53672 22.0809 11.2755 21.8261 12.9783C21.5713 14.6811 20.9169 16.2999 19.9162 17.7031L28.7258 26.4855C29.0589 26.8294 29.2433 27.2899 29.2391 27.768C29.2349 28.246 29.0426 28.7033 28.7035 29.0414C28.3644 29.3794 27.9057 29.5711 27.4262 29.5753C26.9467 29.5795 26.4847 29.3957 26.1398 29.0636L17.332 20.2829C15.6904 21.4467 13.7591 22.1374 11.7498 22.2796C9.74048 22.4217 7.73069 22.0097 5.94066 21.0887C4.15063 20.1678 2.64943 18.7733 1.60157 17.0583C0.553704 15.3432 -0.000391467 13.3737 2.07504e-07 11.3655Z"></path>
  </symbol>
  <symbol fill="none" xmlns="http://www.w3.org/2000/svg" viewBox="0 0 34 35" id="attach">
    <path d="M33 16.5016L17.8711 30.77C16.0177 32.518 13.504 33.5 10.8829 33.5C8.26178 33.5 5.74803 32.518 3.89463 30.77C2.04123 29.022 1 26.6512 1 24.1792C1 21.7072 2.04123 19.3364 3.89463 17.5884L19.0235 3.32C20.2591 2.15467 21.9349 1.5 23.6823 1.5C25.4297 1.5 27.1056 2.15467 28.3412 3.32C29.5768 4.48532 30.2709 6.06584 30.2709 7.71386C30.2709 9.36188 29.5768 10.9424 28.3412 12.1077L13.1958 26.3761C12.578 26.9588 11.7401 27.2861 10.8664 27.2861C9.99272 27.2861 9.1548 26.9588 8.537 26.3761C7.9192 25.7935 7.57212 25.0032 7.57212 24.1792C7.57212 23.3552 7.9192 22.5649 8.537 21.9823L22.5135 8.81621"  stroke-width="2" stroke-linecap="round" stroke-linejoin="round"></path>
  </symbol>
  <symbol fill="none" xmlns="http://www.w3.org/2000/svg" viewBox="0 0 24 23" id="send">
    <path d="M21.7959 1.7041L11.0204 12.4796"  stroke-width="3" stroke-linecap="round" stroke-linejoin="round"></path>
    <path d="M21.7959 1.7041L14.9388 21.2959L11.0204 12.4796L2.2041 8.56124L21.7959 1.7041Z"  stroke-width="3" stroke-linecap="round" stroke-linejoin="round"></path>
  </symbol>
  <symbol xmlns="http://www.w3.org/2000/svg" viewBox="0 0 20 20" id="clock">
    <path d="M10.1512 5.95618V9.65783L12.9275 12.4341M18.48 9.65783C18.48 10.7516 18.2645 11.8346 17.846 12.8451C17.4274 13.8556 16.8139 14.7737 16.0405 15.5471C15.2672 16.3205 14.349 16.934 13.3385 17.3526C12.328 17.7711 11.245 17.9866 10.1512 17.9866C9.0575 17.9866 7.97446 17.7711 6.96397 17.3526C5.95349 16.934 5.03533 16.3205 4.26194 15.5471C3.48854 14.7737 2.87505 13.8556 2.4565 12.8451C2.03794 11.8346 1.82251 10.7516 1.82251 9.65783C1.82251 7.44892 2.7 5.33047 4.26194 3.76853C5.82388 2.20659 7.94233 1.3291 10.1512 1.3291C12.3602 1.3291 14.4786 2.20659 16.0405 3.76853C17.6025 5.33047 18.48 7.44892 18.48 9.65783Z"  stroke-width="2.08218" stroke-linecap="round" stroke-linejoin="round"></path>
  </symbol>
  <symbol xmlns="http://www.w3.org/2000/svg" viewBox="0 0 18 17" id="date">
    <path fill-rule="evenodd" clip-rule="evenodd" d="M4.98688 0.34375C4.71076 0.34375 4.44596 0.453436 4.25071 0.648679C4.05547 0.843921 3.94578 1.10873 3.94578 1.38484V2.42593H2.90469C2.35246 2.42593 1.82285 2.64531 1.43237 3.03579C1.04188 3.42628 0.82251 3.95589 0.82251 4.50812V14.919C0.82251 15.4713 1.04188 16.0009 1.43237 16.3914C1.82285 16.7818 2.35246 17.0012 2.90469 17.0012H15.3978C15.95 17.0012 16.4796 16.7818 16.8701 16.3914C17.2606 16.0009 17.48 15.4713 17.48 14.919V4.50812C17.48 3.95589 17.2606 3.42628 16.8701 3.03579C16.4796 2.64531 15.95 2.42593 15.3978 2.42593H14.3567V1.38484C14.3567 1.10873 14.247 0.843921 14.0518 0.648679C13.8565 0.453436 13.5917 0.34375 13.3156 0.34375C13.0395 0.34375 12.7747 0.453436 12.5794 0.648679C12.3842 0.843921 12.2745 1.10873 12.2745 1.38484V2.42593H6.02797V1.38484C6.02797 1.10873 5.91828 0.843921 5.72304 0.648679C5.5278 0.453436 5.26299 0.34375 4.98688 0.34375ZM4.98688 5.54921C4.71076 5.54921 4.44596 5.65889 4.25071 5.85414C4.05547 6.04938 3.94578 6.31419 3.94578 6.5903C3.94578 6.86641 4.05547 7.13122 4.25071 7.32646C4.44596 7.52171 4.71076 7.63139 4.98688 7.63139H13.3156C13.5917 7.63139 13.8565 7.52171 14.0518 7.32646C14.247 7.13122 14.3567 6.86641 14.3567 6.5903C14.3567 6.31419 14.247 6.04938 14.0518 5.85414C13.8565 5.65889 13.5917 5.54921 13.3156 5.54921H4.98688Z"></path>
  </symbol>
</svg>